<svg width="45" height="45" viewBox="0 0 45 45" fill="none" xmlns="http://www.w3.org/2000/svg">
<g clip-path="url(#clip0_252_208)">
<path d="M2.0939 8.77495C0.937845 8.77495 0 9.7123 0 10.8688V34.9411C0 36.0974 0.93798 37.0349 2.0939 37.0349H42.9062C44.0622 37.0349 45 36.0976 45 34.9411V10.8688C45 9.71243 44.0621 8.7749 42.9062 8.7749H2.09385L2.0939 8.77495ZM14.7558 12.1767C17.3244 12.1767 19.6835 13.0703 21.5353 14.5631C19.9773 15.9571 18.8152 17.7887 18.2419 19.8647H19.1405C19.6697 18.152 20.631 16.6273 21.8981 15.4181C23.1652 16.6273 24.1265 18.152 24.6558 19.8647H25.5685C24.9872 17.7996 23.8235 15.979 22.2666 14.594C24.1219 13.0823 26.4903 12.1766 29.07 12.1766C35.0231 12.1766 39.8489 17.003 39.8489 22.957C39.8489 28.911 35.0231 33.7373 29.07 33.7373C26.4474 33.7373 24.0426 32.8012 22.1738 31.244C23.8455 29.7896 25.078 27.8399 25.6416 25.6218H24.7626C24.2622 27.4835 23.2549 29.1392 21.8981 30.434C20.5413 29.1392 19.5354 27.4835 19.035 25.6218H18.1982C18.7651 27.8077 19.9815 29.7302 21.6281 31.1709C19.7627 32.7088 17.3673 33.6332 14.7557 33.6332C8.80268 33.6332 3.97688 28.8301 3.97688 22.9049C3.97688 16.9798 8.80268 12.1767 14.7558 12.1767ZM28.2614 19.7549C26.9663 19.7549 25.7063 20.8872 25.7063 23.0132C25.7063 24.423 26.3868 25.3532 27.7256 25.3532C28.1042 25.3534 28.7072 25.1986 28.7072 25.1986L28.9069 23.9667C28.9069 23.9667 28.3565 24.2451 27.9788 24.2451C27.1829 24.2451 26.8636 23.633 26.8636 22.9753C26.8636 21.6409 27.5483 20.9066 28.3106 20.9066C28.8823 20.9066 29.3414 21.2301 29.3414 21.2301L29.5242 20.032C29.5242 20.032 28.8446 19.7549 28.2614 19.7549ZM39.15 19.859L38.0236 19.8618L37.7817 21.344C37.7817 21.344 37.3583 20.7688 36.6961 20.7688C35.6665 20.7688 34.8089 21.9919 34.8089 23.3986C34.8089 24.3065 35.2653 25.1971 36.2011 25.1971C36.8742 25.1971 37.2474 24.7345 37.2474 24.7345L37.1981 25.1296H38.2922L39.15 19.859ZM6.88779 19.8745L5.99063 25.1577H7.07202L7.75548 21.1739L7.85673 25.1577H8.63015L10.073 21.1739L9.43313 25.1577H10.582L11.468 19.8745H9.69048L8.58375 23.1159L8.52611 19.8745H6.88784L6.88779 19.8745ZM18.1856 20.2176C18.1612 20.2421 17.5317 23.8719 17.5317 24.314C17.5317 24.9686 17.8986 25.2609 18.4149 25.2562C18.7848 25.253 19.0712 25.1601 19.2038 25.1212C19.2176 25.1175 19.2445 25.1099 19.2445 25.1099L19.3838 24.1649C19.3081 24.1649 19.1966 24.1973 19.0983 24.1973C18.7128 24.1973 18.6701 23.9922 18.6947 23.8401L19.0055 21.9122H19.5919L19.7339 20.8673H19.1813L19.2938 20.2176H18.1856ZM31.2567 20.7492C30.5019 20.7492 29.9236 20.9981 29.9236 20.9981L29.7633 21.9684C29.7633 21.9684 30.2409 21.7701 30.9628 21.7701C31.3727 21.7701 31.6729 21.817 31.6729 22.1582C31.6729 22.3655 31.6364 22.4423 31.6364 22.4423C31.6364 22.4423 31.3123 22.4142 31.1625 22.4142C30.2107 22.4142 29.2106 22.8313 29.2106 24.0862C29.2106 25.0749 29.8671 25.3012 30.2738 25.3012C31.0504 25.3012 31.3853 24.7853 31.403 24.7837L31.3664 25.214H32.3353L32.7685 22.109C32.7686 20.7915 31.6464 20.7491 31.2567 20.7491V20.7492ZM13.0809 20.7548C12.3234 20.7548 11.7422 21.0037 11.7422 21.0037L11.5819 21.974C11.5819 21.974 12.0611 21.7757 12.7856 21.7757C13.197 21.7757 13.4986 21.8228 13.4986 22.1638C13.4986 22.371 13.462 22.4479 13.462 22.4479C13.462 22.4479 13.137 22.4198 12.9867 22.4198C12.0312 22.4198 11.0278 22.8363 11.0278 24.0904C11.0278 25.0786 11.6856 25.3054 12.0938 25.3054C12.8732 25.3054 13.2093 24.7895 13.2272 24.7879L13.1906 25.2182H14.1638L14.5983 22.1147C14.5983 20.7979 13.4721 20.7548 13.0809 20.7548V20.7548ZM16.5178 20.7548C15.7043 20.7548 14.8781 21.0832 14.8781 22.2047C14.8781 23.4754 16.2549 23.347 16.2549 23.8823C16.2549 24.2396 15.8706 24.269 15.5742 24.269C15.0612 24.269 14.5999 24.0918 14.5983 24.1003L14.4506 25.0706C14.4772 25.0788 14.7628 25.207 15.6853 25.207C15.933 25.207 17.3489 25.2699 17.3489 23.7951C17.3489 22.4163 16.0383 22.6896 16.0383 22.1357C16.0383 21.86 16.2511 21.7729 16.6415 21.7729C16.7966 21.7729 17.3939 21.8222 17.3939 21.8222L17.5317 20.842C17.5317 20.8421 17.1463 20.7548 16.5178 20.7548ZM21.6028 20.7548C20.4724 20.755 19.6355 21.9706 19.6355 23.3437C19.6355 24.9286 20.6841 25.3054 21.5775 25.3054C22.4022 25.3054 22.7658 25.1212 22.7658 25.1212L22.9626 24.0398C22.9626 24.0398 22.3353 24.3154 21.7688 24.3154C20.5616 24.3154 20.7731 23.4168 20.7731 23.4168H23.0583C23.0583 23.4168 23.206 22.6906 23.206 22.3945C23.206 21.6556 22.8371 20.7548 21.6028 20.7548ZM25.6964 20.8012C25.1872 20.8012 24.809 21.4861 24.809 21.4861L24.9103 20.8574H23.8528L23.1427 25.1972H24.3113C24.6422 23.344 24.7027 21.8392 25.4925 22.1147C25.6307 21.3974 25.7649 21.1202 25.9158 20.8167C25.9158 20.8167 25.8449 20.8012 25.6964 20.8012ZM35.1647 20.8012C34.6554 20.8012 34.2774 21.4861 34.2774 21.4861L34.3786 20.8574H33.3211L32.6109 25.1972H33.7781C34.1092 23.344 34.1712 21.8392 34.9608 22.1147C35.0993 21.3974 35.2333 21.1202 35.3841 20.8167C35.3841 20.8167 35.3131 20.8012 35.1647 20.8012ZM21.5972 21.7336C22.2392 21.7336 22.1217 22.4582 22.1217 22.5168H20.8575C20.8575 22.442 20.9771 21.7336 21.5972 21.7336ZM36.8733 21.8179C37.2819 21.8178 37.4921 22.0938 37.4921 22.7432C37.4921 23.3324 37.1949 24.1199 36.5794 24.1199C36.1709 24.1199 35.9789 23.7826 35.9789 23.2537C35.9789 22.3889 36.3746 21.8179 36.8733 21.8179ZM31.2581 23.2945C31.4248 23.2947 31.4593 23.3109 31.4874 23.3184C31.4833 23.3177 31.4825 23.3185 31.4986 23.3212C31.5197 23.5145 31.3818 24.4209 30.7153 24.4209C30.3716 24.4209 30.2836 24.1476 30.2836 23.9863C30.2836 23.6719 30.4473 23.2945 31.2581 23.2945ZM13.0824 23.2987C13.2717 23.2989 13.2923 23.3201 13.3242 23.3254C13.3454 23.5186 13.207 24.4237 12.5381 24.4237C12.1931 24.4237 12.1036 24.1517 12.1036 23.9906C12.1036 23.6763 12.2683 23.2987 13.0824 23.2987Z" fill="white"/>
</g>
<defs>
<clipPath id="clip0_252_208">
<rect width="45" height="45" fill="white"/>
</clipPath>
</defs>
</svg>
