<svg width="45" height="45" viewBox="0 0 45 45" fill="none" xmlns="http://www.w3.org/2000/svg">
<path d="M2.8125 12.6562L5.625 14.0625H39.375L42.1875 12.6562V9.84375C42.1875 9.47079 42.0393 9.1131 41.7756 8.84938C41.5119 8.58566 41.1542 8.4375 40.7812 8.4375H4.21875C3.84579 8.4375 3.4881 8.58566 3.22438 8.84938C2.96066 9.1131 2.8125 9.47079 2.8125 9.84375V12.6562Z" fill="#F8312F"/>
<path d="M2.8125 35.1562C2.8125 35.5292 2.96066 35.8869 3.22438 36.1506C3.4881 36.4143 3.84579 36.5625 4.21875 36.5625H40.7812C41.1542 36.5625 41.5119 36.4143 41.7756 36.1506C42.0393 35.8869 42.1875 35.5292 42.1875 35.1562V32.3438L39.375 30.9375H5.625L2.8125 32.3438V35.1562Z" fill="#8D65C5"/>
<path d="M2.8125 16.875L5.625 18.2812H39.375L42.1875 16.875V12.6562H2.8125V16.875Z" fill="#FFB02E"/>
<path d="M2.8125 32.3438H42.1875V28.125L39.375 26.7188H5.625L2.8125 28.125V32.3438Z" fill="#3F5FFF"/>
<path d="M2.8125 28.125H42.1875V22.5L39.375 21.0938H5.625L2.8125 22.5V28.125Z" fill="#00D26A"/>
<path d="M42.1875 22.5V16.875H2.8125V22.5H42.1875Z" fill="#FFF478"/>
</svg>
