<svg width="45" height="29" viewBox="0 0 45 29" fill="none" xmlns="http://www.w3.org/2000/svg">
<path d="M1.8 0.370117C0.806085 0.370117 0 1.17598 0 2.17012V26.8301C0 27.8242 0.80649 28.6301 1.8 28.6301H43.2C44.1939 28.6301 45 27.8243 45 26.8301V2.17012C45 1.17602 44.1935 0.370117 43.2 0.370117H1.8ZM26.8763 8.79214C27.9715 8.79214 28.8492 9.03406 29.4089 9.25901L29.0264 11.6651L28.7733 11.5371C28.2519 11.3122 27.5821 11.0957 26.6583 11.111C25.5524 11.111 25.0411 11.6044 25.0411 12.0659C25.0347 12.586 25.6385 12.929 26.6259 13.4426C28.2557 14.2351 29.0089 15.1959 28.9983 16.459C28.9764 18.7638 27.0487 20.2531 24.0792 20.2531C22.8123 20.2391 21.5918 19.9709 20.932 19.661L21.3286 17.1748L21.6928 17.352C22.6206 17.7665 23.2214 17.9342 24.352 17.9342C25.164 17.9342 26.0354 17.5942 26.0424 16.85C26.0476 16.364 25.6781 16.0175 24.5784 15.4732C23.5069 14.9421 22.0863 14.0523 22.1021 12.4568C22.1188 10.2986 24.0849 8.79214 26.8763 8.79214ZM3.97966 9.14512H8.54015C9.15426 9.16834 9.65007 9.36607 9.82125 10.0325L10.8042 15.1062C10.8044 15.1067 10.8041 15.1085 10.8042 15.109L11.0995 16.6292L13.8684 9.14512H16.8638L12.4115 20.0998L9.41904 20.1026L7.03688 11.2629C8.45429 12.0138 9.66101 12.8826 10.3599 14.0782C10.1797 13.6999 9.94226 13.2729 9.63846 12.852C9.28467 12.3619 8.52062 11.729 8.20125 11.4598C7.0884 10.5217 5.57708 9.764 3.94452 9.3631L3.97966 9.14512ZM18.0549 9.15776H20.9841L19.1517 20.0956H16.2225L18.0549 9.15776ZM34.5994 9.15776H36.8185L39.1416 20.0956H36.4781C36.4781 20.0956 36.2139 18.839 36.128 18.4559C35.7093 18.4559 32.7815 18.4517 32.452 18.4517C32.3406 18.7478 31.8474 20.0956 31.8474 20.0956H28.8338L33.0961 10.0662C33.3979 9.35351 33.9123 9.15776 34.5994 9.15776ZM34.8174 12.0996C34.6732 12.5065 34.4223 13.1635 34.439 13.1346C34.439 13.1346 33.5374 15.5394 33.3014 16.1637L35.6709 16.1623C35.4508 15.1193 35.2305 14.0764 35.01 13.0335L34.8174 12.0997V12.0996Z" fill="white"/>
</svg>
